<?xml version="1.0" encoding="UTF-8"?>
<svg id="Layer_2" data-name="Layer 2" xmlns="http://www.w3.org/2000/svg" viewBox="0 0 192.97 62.42">
  <g id="Layer_1-2" data-name="Layer 1">
    <g id="horizontal-color">
      <g>
        <path d="M17.53,28.9c-1.58,1.78-2.76,4.28-3.5,6.79-.42,1.42.67,2.84,2.16,2.84h19.22c4.08,0,7.9-1.78,10.78-5.02,1.58-1.78,2.76-4.28,3.5-6.79.42-1.42-.67-2.84-2.16-2.84h-19.22c-4.08,0-7.9,1.78-10.78,5.02Z" fill="#004dbd" stroke-width="0"/>
        <path d="M44.24,19.91c3.22,0,5.83-2.61,5.83-5.83v-2.7s0-7.13,0-7.13v-1.74c0-1.76-1.74-2.95-3.4-2.36-1.91.67-3.97,1.04-6.11,1.06h-21.52C8.53,1.2,0,9.73,0,20.25v2.44c0,6.17,2.94,11.65,7.48,15.13.76.58,1.88.12,1.98-.83.99-9.59,9.09-17.07,18.94-17.07h15.83Z" fill="#021b59" stroke-width="0"/>
        <path d="M55.96,24.6c-.76-.58-1.88-.12-1.98.83-.99,9.59-9.09,17.07-18.94,17.07h-15.84c-3.22,0-5.82,2.62-5.82,5.83v2.7s0,7.13,0,7.13v1.74c0,1.76,1.74,2.95,3.4,2.36,1.91-.67,3.97-1.04,6.11-1.06h21.52c10.52,0,19.04-8.53,19.04-19.04v-2.44c0-6.17-2.94-11.65-7.48-15.13Z" fill="#1281fc" stroke-width="0"/>
      </g>
      <g>
        <path d="M120.34,32.16c.28,0,.53-.17.64-.42l3.32-7.46h.22l3.35,7.46c.11.25.36.42.64.42h3.16c.51,0,.85-.53.64-.99l-6.85-15.13c-.13-.26-.53-.48-.75-.48h-.44c-.22,0-.62.22-.75.48l-6.91,15.12c-.21.46.13.99.64.99h3.09Z" fill="#004dbd" stroke-width="0"/>
        <path d="M83.74,41.11h0c-.18.3-.37.61-.56.89-.43.74-.13,1.04.26,1.39.69.65,4.03,3.43,9.33,3.43,5.64,0,9.68-3.69,9.68-8.21,0-5.29-4.29-7.69-9.33-9.73-3.61-1.47-5.52-3-5.52-5.48,0-1.62,1.26-3.91,4.91-3.91,2.32,0,5.07,1.68,5.74,2.09.06.04.1.06.13.08.61.39,1.17.13,1.52-.43.17-.26.36-.54.54-.82h0s0,0,0,0c.18-.28.37-.56.54-.82.43-.65.09-1.26-.26-1.47-.43-.3-3.69-2.56-8.03-2.56-6.91,0-9.51,4.65-9.51,8.03,0,5.04,3.47,7.34,7.9,9.2,4.3,1.78,6.56,3.44,6.56,6.04,0,2.22-1.92,4.04-4.91,4.04-3.34,0-6.69-2.78-6.95-2.99-.48-.39-1.08-.22-1.47.35-.2.28-.38.59-.56.89h0Z" fill="#004dbd" stroke-width="0"/>
        <path d="M134.67,36.38l4.24,9.34c.26.57-.09,1.15-.77,1.15h-2.78c-.53,0-.84-.26-1.01-.66l-2.73-6.05h-14.43c-.46,1.06-.93,2.1-1.39,3.14h0s0,0,0,0c-.43.97-.87,1.93-1.29,2.91-.13.31-.48.66-1.01.66h-2.78c-.66,0-1.01-.57-.75-1.15l4.26-9.34h20.44Z" fill="#004dbd" stroke-width="0"/>
        <path d="M148.24,16.4c0-.45.36-.85.85-.85h2.94c.45,0,.85.4.85.85v26.27h12.11c.49,0,.85.4.85.85v2.45c0,.45-.36.85-.85.85h-15.9c-.49,0-.85-.4-.85-.85v-29.57Z" fill="#004dbd" stroke-width="0"/>
        <path d="M172.91,19.75h7.29v26.22c0,.45.4.85.85.85h2.94c.45,0,.85-.4.85-.85v-26.23h7.28c.49,0,.85-.4.85-.85v-2.5c0-.45-.36-.85-.85-.85h-19.21c-.49,0-.85.4-.85.85v2.51c0,.45.36.85.85.85Z" fill="#004dbd" stroke-width="0"/>
      </g>
    </g>
  </g>
</svg>